<?xml version="1.0" encoding="utf-8"?>
<!-- Generator: Adobe Illustrator 18.1.1, SVG Export Plug-In . SVG Version: 6.00 Build 0)  -->
<svg version="1.1" id="Layer_1" xmlns="http://www.w3.org/2000/svg" xmlns:xlink="http://www.w3.org/1999/xlink" x="0px" y="0px"
	 viewBox="0 0 176.2 17.9" enable-background="new 0 0 176.2 17.9" xml:space="preserve">
<g>
	<g>
		<g>
			<path fill="#FFFFFF" d="M54.2,6.8h-0.7L53.3,6c-0.6,0.7-1.2,0.9-2,0.9c-2,0-3.2-1.6-3.2-3.5c0-1.9,1.2-3.5,3.2-3.5
				c1.5,0,2.7,0.8,2.9,2.3H53C52.9,1.4,52.1,1,51.3,1c-1.4,0-2,1.3-2,2.5c0,1.3,0.6,2.5,2,2.5c1.2,0,1.8-0.7,1.9-1.8h-1.8V3.3h2.8
				V6.8z"/>
			<path fill="#FFFFFF" d="M55.1,4.4c0-1.5,0.9-2.5,2.4-2.5c1.5,0,2.4,1.1,2.4,2.5c0,1.5-0.9,2.5-2.4,2.5C56,6.9,55.1,5.9,55.1,4.4z
				 M58.9,4.4c0-0.8-0.4-1.7-1.4-1.7c-1,0-1.4,0.9-1.4,1.7c0,0.8,0.4,1.7,1.4,1.7C58.5,6.1,58.9,5.2,58.9,4.4z"/>
			<path fill="#FFFFFF" d="M60.4,2h1.2l1.2,3.7h0L63.9,2H65l-1.7,4.8h-1.2L60.4,2z"/>
			<path fill="#FFFFFF" d="M66.5,4.7c0,0.8,0.4,1.4,1.3,1.4c0.6,0,1-0.3,1.2-0.8h1c-0.2,1.1-1.1,1.6-2.2,1.6c-1.5,0-2.4-1.1-2.4-2.5
				c0-1.4,0.9-2.5,2.3-2.5c1.5,0,2.5,1.4,2.3,2.8H66.5z M69,4c0-0.7-0.5-1.3-1.2-1.3c-0.7,0-1.2,0.6-1.3,1.3H69z"/>
			<path fill="#FFFFFF" d="M70.9,2h1v0.9h0c0.1-0.5,0.8-1.1,1.4-1.1c0.2,0,0.3,0,0.4,0v1c-0.2,0-0.3,0-0.5,0c-0.7,0-1.3,0.6-1.3,1.6
				v2.3h-1.1V2z"/>
			<path fill="#FFFFFF" d="M74.3,2h1v0.7l0,0c0.3-0.5,0.9-0.9,1.5-0.9c1,0,1.7,0.6,1.7,1.6v3.3h-1.1v-3c0-0.8-0.3-1.1-0.9-1.1
				c-0.7,0-1.2,0.6-1.2,1.3v2.8h-1.1V2z"/>
			<path fill="#FFFFFF" d="M79.7,2h1v0.7h0c0.3-0.5,0.7-0.8,1.5-0.8c0.6,0,1.1,0.3,1.4,0.8c0.4-0.5,0.8-0.8,1.5-0.8
				c1,0,1.6,0.4,1.6,1.6v3.3h-1.1V4c0-0.8,0-1.3-0.9-1.3c-0.7,0-1,0.5-1,1.3v2.8h-1.1V3.7c0-0.7-0.2-1-0.8-1c-0.5,0-1.1,0.4-1.1,1.2
				v2.9h-1.1V2z"/>
			<path fill="#FFFFFF" d="M88.6,4.7c0,0.8,0.4,1.4,1.3,1.4c0.6,0,1-0.3,1.2-0.8h1c-0.2,1.1-1.1,1.6-2.2,1.6c-1.5,0-2.4-1.1-2.4-2.5
				c0-1.4,0.9-2.5,2.3-2.5c1.5,0,2.5,1.4,2.3,2.8H88.6z M91.1,4c0-0.7-0.5-1.3-1.2-1.3c-0.7,0-1.2,0.6-1.3,1.3H91.1z"/>
			<path fill="#FFFFFF" d="M93,2h1v0.7l0,0c0.3-0.5,0.9-0.9,1.5-0.9c1,0,1.7,0.6,1.7,1.6v3.3h-1.1v-3c0-0.8-0.3-1.1-0.9-1.1
				C94.5,2.7,94,3.3,94,4v2.8H93V2z"/>
			<path fill="#FFFFFF" d="M97.8,2h0.8V0.5h1.1V2h1v0.8h-1v2.6c0,0.4,0,0.7,0.5,0.7c0.1,0,0.3,0,0.4,0v0.8c-0.2,0-0.5,0.1-0.7,0.1
				c-1.1,0-1.3-0.4-1.3-1.2V2.8h-0.8V2z"/>
			<path fill="#FFFFFF" d="M48,15.3c0-1.5,0.9-2.5,2.4-2.5c1.5,0,2.4,1.1,2.4,2.5c0,1.5-0.9,2.5-2.4,2.5C48.9,17.9,48,16.8,48,15.3z
				 M51.8,15.3c0-0.8-0.4-1.7-1.4-1.7c-1,0-1.4,0.9-1.4,1.7c0,0.8,0.4,1.7,1.4,1.7C51.4,17,51.8,16.2,51.8,15.3z"/>
			<path fill="#FFFFFF" d="M53.3,12.9h0.8v-0.4c0-1.2,0.6-1.4,1.3-1.4c0.3,0,0.6,0,0.7,0.1V12c-0.1,0-0.3-0.1-0.5-0.1
				c-0.3,0-0.5,0.1-0.5,0.5v0.5H56v0.8h-0.9v4h-1.1v-4h-0.8V12.9z"/>
			<path fill="#FFFFFF" d="M63.9,13.2c-0.2-0.8-0.7-1.3-1.7-1.3c-1.4,0-2,1.3-2,2.5c0,1.3,0.6,2.5,2,2.5c1,0,1.6-0.8,1.7-1.7h1.1
				c-0.1,1.6-1.2,2.7-2.8,2.7c-2,0-3.2-1.6-3.2-3.5c0-1.9,1.2-3.5,3.2-3.5c1.5,0,2.7,0.8,2.8,2.3H63.9z"/>
			<path fill="#FFFFFF" d="M70.1,16.7c0,0.3,0.1,0.4,0.3,0.4c0.1,0,0.1,0,0.3,0v0.7c-0.2,0.1-0.5,0.1-0.7,0.1
				c-0.4,0-0.7-0.1-0.8-0.6c-0.4,0.4-1.1,0.6-1.7,0.6c-0.9,0-1.7-0.5-1.7-1.4c0-1.2,1-1.4,1.9-1.5c0.8-0.1,1.4-0.1,1.4-0.7
				c0-0.6-0.6-0.7-1-0.7c-0.6,0-1,0.2-1.1,0.8h-1.1c0.1-1.2,1.1-1.6,2.2-1.6c0.9,0,1.9,0.4,1.9,1.4V16.7z M69,15.3
				c-0.3,0.2-0.8,0.2-1.3,0.3c-0.5,0.1-0.9,0.2-0.9,0.8c0,0.5,0.6,0.6,1,0.6c0.5,0,1.2-0.2,1.2-0.9V15.3z"/>
			<path fill="#FFFFFF" d="M71.2,12.9h1v0.7l0,0c0.3-0.5,0.9-0.9,1.5-0.9c1,0,1.7,0.6,1.7,1.6v3.3h-1.1v-3c0-0.8-0.3-1.1-0.9-1.1
				c-0.7,0-1.2,0.6-1.2,1.3v2.8h-1.1V12.9z"/>
			<path fill="#FFFFFF" d="M80.6,16.7c0,0.3,0.1,0.4,0.3,0.4c0.1,0,0.1,0,0.3,0v0.7c-0.2,0.1-0.5,0.1-0.7,0.1
				c-0.4,0-0.7-0.1-0.8-0.6c-0.4,0.4-1.1,0.6-1.7,0.6c-0.9,0-1.7-0.5-1.7-1.4c0-1.2,1-1.4,1.9-1.5c0.8-0.1,1.4-0.1,1.4-0.7
				c0-0.6-0.6-0.7-1-0.7c-0.6,0-1,0.2-1.1,0.8h-1.1c0.1-1.2,1.1-1.6,2.2-1.6c0.9,0,1.9,0.4,1.9,1.4V16.7z M79.5,15.3
				c-0.3,0.2-0.8,0.2-1.3,0.3c-0.5,0.1-0.9,0.2-0.9,0.8c0,0.5,0.6,0.6,1,0.6c0.5,0,1.2-0.2,1.2-0.9V15.3z"/>
			<path fill="#FFFFFF" d="M86.3,17.8h-1v-0.7h0c-0.3,0.5-0.9,0.8-1.5,0.8c-1.5,0-2.3-1.1-2.3-2.6c0-1.7,1-2.5,2.1-2.5
				c0.6,0,1.3,0.2,1.6,0.8h0v-2.5h1.1V17.8z M83.9,17c1,0,1.4-0.9,1.4-1.7c0-1.1-0.5-1.7-1.3-1.7c-1,0-1.4,0.9-1.4,1.8
				C82.6,16.2,83,17,83.9,17z"/>
			<path fill="#FFFFFF" d="M91.5,16.7c0,0.3,0.1,0.4,0.3,0.4c0.1,0,0.1,0,0.3,0v0.7c-0.2,0.1-0.5,0.1-0.7,0.1
				c-0.4,0-0.7-0.1-0.8-0.6c-0.4,0.4-1.1,0.6-1.7,0.6c-0.9,0-1.7-0.5-1.7-1.4c0-1.2,1-1.4,1.9-1.5c0.8-0.1,1.4-0.1,1.4-0.7
				c0-0.6-0.6-0.7-1-0.7c-0.6,0-1,0.2-1.1,0.8h-1.1c0.1-1.2,1.1-1.6,2.2-1.6c0.9,0,1.9,0.4,1.9,1.4V16.7z M90.4,15.3
				c-0.3,0.2-0.8,0.2-1.3,0.3c-0.5,0.1-0.9,0.2-0.9,0.8c0,0.5,0.6,0.6,1,0.6c0.5,0,1.2-0.2,1.2-0.9V15.3z"/>
		</g>
		<g>
			<path fill="#FFFFFF" d="M119.2,6.8h-0.7L118.3,6c-0.6,0.7-1.2,0.9-2,0.9c-2,0-3.2-1.6-3.2-3.5c0-1.9,1.2-3.5,3.2-3.5
				c1.5,0,2.7,0.8,2.9,2.3H118c-0.1-0.9-0.9-1.3-1.7-1.3c-1.4,0-2,1.3-2,2.5c0,1.3,0.6,2.5,2,2.5c1.2,0,1.8-0.7,1.9-1.8h-1.8V3.3
				h2.8V6.8z"/>
			<path fill="#FFFFFF" d="M120.1,4.4c0-1.5,0.9-2.5,2.4-2.5c1.5,0,2.4,1.1,2.4,2.5c0,1.5-0.9,2.5-2.4,2.5
				C121,6.9,120.1,5.9,120.1,4.4z M123.9,4.4c0-0.8-0.4-1.7-1.4-1.7c-1,0-1.4,0.9-1.4,1.7c0,0.8,0.4,1.7,1.4,1.7
				C123.5,6.1,123.9,5.2,123.9,4.4z"/>
			<path fill="#FFFFFF" d="M130.1,6.8h-1V6.1h0c-0.3,0.5-0.8,0.8-1.4,0.8c-1.3,0-1.8-0.6-1.8-1.9V2h1.1v3c0,0.8,0.3,1.2,0.9,1.2
				c0.9,0,1.2-0.6,1.2-1.3V2h1.1V6.8z"/>
			<path fill="#FFFFFF" d="M130.7,2h1.2l1.2,3.7h0l1.2-3.7h1.1l-1.7,4.8h-1.2L130.7,2z"/>
			<path fill="#FFFFFF" d="M136.9,4.7c0,0.8,0.4,1.4,1.3,1.4c0.6,0,1-0.3,1.2-0.8h1c-0.2,1.1-1.1,1.6-2.2,1.6
				c-1.5,0-2.4-1.1-2.4-2.5c0-1.4,0.9-2.5,2.3-2.5c1.5,0,2.5,1.4,2.3,2.8H136.9z M139.3,4c0-0.7-0.5-1.3-1.2-1.3
				c-0.7,0-1.2,0.6-1.3,1.3H139.3z"/>
			<path fill="#FFFFFF" d="M141.2,2h1v0.9h0c0.1-0.5,0.8-1.1,1.4-1.1c0.2,0,0.3,0,0.4,0v1c-0.1,0-0.3,0-0.5,0
				c-0.7,0-1.3,0.6-1.3,1.6v2.3h-1.1V2z"/>
			<path fill="#FFFFFF" d="M144.7,2h1v0.7l0,0c0.3-0.5,0.9-0.9,1.5-0.9c1,0,1.7,0.6,1.7,1.6v3.3h-1.1v-3c0-0.8-0.3-1.1-0.9-1.1
				c-0.7,0-1.2,0.6-1.2,1.3v2.8h-1.1V2z"/>
			<path fill="#FFFFFF" d="M150.8,4.7c0,0.8,0.4,1.4,1.3,1.4c0.6,0,1-0.3,1.2-0.8h1c-0.2,1.1-1.1,1.6-2.2,1.6
				c-1.5,0-2.4-1.1-2.4-2.5c0-1.4,0.9-2.5,2.3-2.5c1.5,0,2.5,1.4,2.3,2.8H150.8z M153.3,4c0-0.7-0.5-1.3-1.2-1.3
				c-0.7,0-1.2,0.6-1.3,1.3H153.3z"/>
			<path fill="#FFFFFF" d="M155.2,2h1v0.7h0c0.3-0.5,0.7-0.8,1.5-0.8c0.6,0,1.1,0.3,1.4,0.8c0.4-0.5,0.8-0.8,1.5-0.8
				c1,0,1.6,0.4,1.6,1.6v3.3h-1.1V4c0-0.8,0-1.3-0.9-1.3c-0.7,0-1,0.5-1,1.3v2.8h-1.1V3.7c0-0.7-0.2-1-0.8-1c-0.6,0-1.1,0.4-1.1,1.2
				v2.9h-1.1V2z"/>
			<path fill="#FFFFFF" d="M164.1,4.7c0,0.8,0.4,1.4,1.3,1.4c0.6,0,1-0.3,1.2-0.8h1c-0.2,1.1-1.1,1.6-2.2,1.6
				c-1.5,0-2.4-1.1-2.4-2.5c0-1.4,0.9-2.5,2.3-2.5c1.5,0,2.5,1.4,2.3,2.8H164.1z M166.6,4c0-0.7-0.5-1.3-1.2-1.3
				c-0.7,0-1.2,0.6-1.3,1.3H166.6z"/>
			<path fill="#FFFFFF" d="M168.5,2h1v0.7l0,0c0.3-0.5,0.9-0.9,1.5-0.9c1,0,1.7,0.6,1.7,1.6v3.3h-1.1v-3c0-0.8-0.3-1.1-0.9-1.1
				c-0.7,0-1.2,0.6-1.2,1.3v2.8h-1.1V2z"/>
			<path fill="#FFFFFF" d="M173.4,2h0.8V0.5h1.1V2h1v0.8h-1v2.6c0,0.4,0,0.7,0.5,0.7c0.1,0,0.3,0,0.4,0v0.8c-0.2,0-0.5,0.1-0.7,0.1
				c-1.1,0-1.3-0.4-1.3-1.2V2.8h-0.8V2z"/>
			<path fill="#FFFFFF" d="M117.8,17.8h-1v-0.7h0c-0.3,0.5-0.9,0.8-1.5,0.8c-1.5,0-2.3-1.1-2.3-2.6c0-1.7,1-2.5,2.1-2.5
				c0.6,0,1.3,0.2,1.6,0.8h0v-2.5h1.1V17.8z M115.4,17c1,0,1.4-0.9,1.4-1.7c0-1.1-0.5-1.7-1.3-1.7c-1,0-1.4,0.9-1.4,1.8
				C114.1,16.2,114.5,17,115.4,17z"/>
			<path fill="#FFFFFF" d="M123.2,17.8h-1v-0.7h0c-0.3,0.5-0.8,0.8-1.4,0.8c-1.3,0-1.8-0.6-1.8-1.9v-3.1h1.1v3
				c0,0.8,0.3,1.2,0.9,1.2c0.9,0,1.2-0.6,1.2-1.3v-2.8h1.1V17.8z"/>
			<path fill="#FFFFFF" d="M131.5,13.2c-0.2-0.8-0.7-1.3-1.7-1.3c-1.4,0-2,1.3-2,2.5c0,1.3,0.6,2.5,2,2.5c1,0,1.6-0.8,1.7-1.7h1.1
				c-0.1,1.6-1.2,2.7-2.8,2.7c-2,0-3.2-1.6-3.2-3.5c0-1.9,1.2-3.5,3.2-3.5c1.5,0,2.7,0.8,2.8,2.3H131.5z"/>
			<path fill="#FFFFFF" d="M137.6,16.7c0,0.3,0.1,0.4,0.3,0.4c0.1,0,0.1,0,0.3,0v0.7c-0.2,0.1-0.5,0.1-0.7,0.1
				c-0.4,0-0.7-0.1-0.8-0.6c-0.4,0.4-1.1,0.6-1.7,0.6c-0.9,0-1.6-0.5-1.6-1.4c0-1.2,1-1.4,1.9-1.5c0.8-0.1,1.4-0.1,1.4-0.7
				c0-0.6-0.6-0.7-1-0.7c-0.6,0-1,0.2-1.1,0.8h-1.1c0.1-1.2,1.1-1.6,2.2-1.6c0.9,0,1.9,0.4,1.9,1.4V16.7z M136.6,15.3
				c-0.3,0.2-0.8,0.2-1.3,0.3c-0.5,0.1-0.9,0.2-0.9,0.8c0,0.5,0.6,0.6,1,0.6c0.5,0,1.2-0.2,1.2-0.9V15.3z"/>
			<path fill="#FFFFFF" d="M138.8,12.9h1v0.7l0,0c0.3-0.5,0.9-0.9,1.5-0.9c1,0,1.7,0.6,1.7,1.6v3.3H142v-3c0-0.8-0.3-1.1-0.9-1.1
				c-0.7,0-1.2,0.6-1.2,1.3v2.8h-1.1V12.9z"/>
			<path fill="#FFFFFF" d="M148.2,16.7c0,0.3,0.1,0.4,0.3,0.4c0.1,0,0.1,0,0.3,0v0.7c-0.2,0.1-0.5,0.1-0.7,0.1
				c-0.4,0-0.7-0.1-0.8-0.6c-0.4,0.4-1.1,0.6-1.7,0.6c-0.9,0-1.7-0.5-1.7-1.4c0-1.2,1-1.4,1.9-1.5c0.8-0.1,1.4-0.1,1.4-0.7
				c0-0.6-0.6-0.7-1-0.7c-0.6,0-1,0.2-1.1,0.8h-1.1c0.1-1.2,1.1-1.6,2.2-1.6c0.9,0,1.9,0.4,1.9,1.4V16.7z M147.1,15.3
				c-0.3,0.2-0.8,0.2-1.3,0.3c-0.5,0.1-0.9,0.2-0.9,0.8c0,0.5,0.6,0.6,1,0.6c0.5,0,1.2-0.2,1.2-0.9V15.3z"/>
			<path fill="#FFFFFF" d="M153.9,17.8h-1v-0.7h0c-0.3,0.5-0.9,0.8-1.5,0.8c-1.5,0-2.3-1.1-2.3-2.6c0-1.7,1-2.5,2.1-2.5
				c0.6,0,1.3,0.2,1.6,0.8h0v-2.5h1.1V17.8z M151.5,17c1,0,1.4-0.9,1.4-1.7c0-1.1-0.5-1.7-1.3-1.7c-1,0-1.4,0.9-1.4,1.8
				C150.1,16.2,150.6,17,151.5,17z"/>
			<path fill="#FFFFFF" d="M159.1,16.7c0,0.3,0.1,0.4,0.3,0.4c0.1,0,0.2,0,0.3,0v0.7c-0.2,0.1-0.5,0.1-0.7,0.1
				c-0.4,0-0.7-0.1-0.8-0.6c-0.4,0.4-1.1,0.6-1.7,0.6c-0.9,0-1.7-0.5-1.7-1.4c0-1.2,1-1.4,1.9-1.5c0.8-0.1,1.4-0.1,1.4-0.7
				c0-0.6-0.6-0.7-1-0.7c-0.6,0-1,0.2-1.1,0.8h-1.1c0.1-1.2,1.1-1.6,2.2-1.6c0.9,0,1.9,0.4,1.9,1.4V16.7z M158,15.3
				c-0.3,0.2-0.8,0.2-1.3,0.3c-0.5,0.1-0.9,0.2-0.9,0.8c0,0.5,0.6,0.6,1,0.6c0.5,0,1.2-0.2,1.2-0.9V15.3z"/>
		</g>
	</g>
	<g>
		<rect x="0" y="0.4" fill="#FFFFFF" width="8.7" height="17.3"/>
		<path fill="#FFFFFF" d="M4.3,9"/>
	</g>
	<g>
		<rect x="26" y="0.4" fill="#FFFFFF" width="8.7" height="17.3"/>
		<path fill="#FFFFFF" d="M30.3,9"/>
	</g>
	<path fill="#FFFFFF" d="M16.2,4c-0.1,0.2-0.4,0.3-0.6,0.1c-0.4-0.2-0.7-0.4-1.1-0.6c0.3,1.3,0.5,2.5,0.8,3.8
		c-0.1,0.2-0.2,0.4-0.4,0.3c-0.7-0.5-1.2-1.2-1.8-1.8c-0.3,0.4-0.3,0.9-0.7,1.1c-0.6-0.1-1.2-0.2-1.7-0.3c0.2,0.6,0.4,1.2,0.6,1.8
		c0.1,0.4-0.3,0.7-0.7,0.8c0.4,0.3,0.8,0.7,1.2,1c0.7,0.6,1.4,1.1,2,1.8c0.1,0.5-0.3,1-0.4,1.5c1-0.2,1.9-0.4,2.9-0.6
		c0.2-0.1,0.5,0,0.5,0.2c0,1.1,0,2.2,0,3.3c0,0,0.5,0,0.7,0c0-1.1,0-3.3,0-3.3c0-0.3,0.3-0.3,0.5-0.2c1,0.3,1.9,0.4,2.9,0.6
		c0-0.5-0.4-0.9-0.4-1.5c0.6-0.6,1.3-1.1,2-1.8c0.4-0.4,0.8-0.7,1.2-1c-0.4-0.1-0.8-0.4-0.7-0.8c0.2-0.6,0.4-1.2,0.6-1.8
		c-0.6,0.1-1.2,0.2-1.7,0.3c-0.4-0.2-0.4-0.8-0.7-1.1c-0.6,0.6-1,1.3-1.8,1.8c-0.2,0.1-0.3-0.1-0.4-0.3c0.3-1.3,0.5-2.5,0.8-3.8
		c-0.3,0.3-0.7,0.4-1.1,0.6c-0.2,0.1-0.5,0.1-0.6-0.1c0,0-1.1-2.2-1.1-2.2"/>
</g>
</svg>
