<?xml version="1.0" encoding="utf-8"?>
<!-- Generator: Adobe Illustrator 18.1.1, SVG Export Plug-In . SVG Version: 6.00 Build 0)  -->
<svg version="1.1" id="Layer_1" xmlns="http://www.w3.org/2000/svg" xmlns:xlink="http://www.w3.org/1999/xlink" x="0px" y="0px"
	 viewBox="0 0 175.9 17.9" enable-background="new 0 0 175.9 17.9" xml:space="preserve">
<g>
	<g>
		<path fill="#FFFFFF" d="M129.4,6.8h-0.7L128.5,6c-0.6,0.7-1.2,0.9-2,0.9c-2,0-3.2-1.6-3.2-3.5c0-1.9,1.2-3.5,3.2-3.5
			c1.5,0,2.7,0.8,2.9,2.3h-1.1c-0.1-0.9-0.9-1.3-1.7-1.3c-1.4,0-2,1.3-2,2.5c0,1.3,0.6,2.5,2,2.5c1.2,0,1.8-0.7,1.9-1.8h-1.8V3.3
			h2.8V6.8z"/>
		<path fill="#FFFFFF" d="M130.3,4.4c0-1.5,0.9-2.5,2.4-2.5c1.5,0,2.4,1.1,2.4,2.5c0,1.5-0.9,2.5-2.4,2.5
			C131.2,6.9,130.3,5.9,130.3,4.4z M134.1,4.4c0-0.8-0.4-1.7-1.4-1.7c-1,0-1.4,0.9-1.4,1.7c0,0.8,0.4,1.7,1.4,1.7
			C133.7,6.1,134.1,5.2,134.1,4.4z"/>
		<path fill="#FFFFFF" d="M135.6,2h1.2l1.2,3.7h0l1.2-3.7h1.1l-1.7,4.8h-1.2L135.6,2z"/>
		<path fill="#FFFFFF" d="M141.8,4.7c0,0.8,0.4,1.4,1.3,1.4c0.6,0,1-0.3,1.2-0.8h1c-0.2,1.1-1.1,1.6-2.2,1.6c-1.5,0-2.4-1.1-2.4-2.5
			c0-1.4,0.9-2.5,2.3-2.5c1.5,0,2.5,1.4,2.3,2.8H141.8z M144.2,4c0-0.7-0.5-1.3-1.2-1.3c-0.7,0-1.2,0.6-1.3,1.3H144.2z"/>
		<path fill="#FFFFFF" d="M146.1,2h1v0.9h0c0.1-0.5,0.8-1.1,1.4-1.1c0.2,0,0.3,0,0.4,0v1c-0.1,0-0.3,0-0.5,0c-0.7,0-1.3,0.6-1.3,1.6
			v2.3h-1.1V2z"/>
		<path fill="#FFFFFF" d="M149.6,2h1v0.7l0,0c0.3-0.5,0.9-0.9,1.5-0.9c1,0,1.7,0.6,1.7,1.6v3.3h-1.1v-3c0-0.8-0.3-1.1-0.9-1.1
			c-0.7,0-1.2,0.6-1.2,1.3v2.8h-1.1V2z"/>
		<path fill="#FFFFFF" d="M154.9,2h1v0.7h0c0.3-0.5,0.7-0.8,1.5-0.8c0.6,0,1.1,0.3,1.4,0.8c0.4-0.5,0.8-0.8,1.5-0.8
			c1,0,1.6,0.4,1.6,1.6v3.3h-1.1V4c0-0.8,0-1.3-0.9-1.3c-0.7,0-1,0.5-1,1.3v2.8h-1.1V3.7c0-0.7-0.2-1-0.8-1c-0.6,0-1.1,0.4-1.1,1.2
			v2.9h-1.1V2z"/>
		<path fill="#FFFFFF" d="M163.9,4.7c0,0.8,0.4,1.4,1.3,1.4c0.6,0,1-0.3,1.2-0.8h1c-0.2,1.1-1.1,1.6-2.2,1.6c-1.5,0-2.4-1.1-2.4-2.5
			c0-1.4,0.9-2.5,2.3-2.5c1.5,0,2.5,1.4,2.3,2.8H163.9z M166.3,4c0-0.7-0.5-1.3-1.2-1.3c-0.7,0-1.2,0.6-1.3,1.3H166.3z"/>
		<path fill="#FFFFFF" d="M168.2,2h1v0.7l0,0c0.3-0.5,0.9-0.9,1.5-0.9c1,0,1.7,0.6,1.7,1.6v3.3h-1.1v-3c0-0.8-0.3-1.1-0.9-1.1
			c-0.7,0-1.2,0.6-1.2,1.3v2.8h-1.1V2z"/>
		<path fill="#FFFFFF" d="M173.1,2h0.8V0.6h1.1V2h1v0.8h-1v2.6c0,0.4,0,0.7,0.5,0.7c0.1,0,0.3,0,0.4,0v0.8c-0.2,0-0.5,0.1-0.7,0.1
			c-1.1,0-1.3-0.4-1.3-1.2V2.8h-0.8V2z"/>
		<path fill="#FFFFFF" d="M123.3,15.3c0-1.5,0.9-2.5,2.4-2.5c1.5,0,2.4,1.1,2.4,2.5c0,1.5-0.9,2.5-2.4,2.5
			C124.1,17.9,123.3,16.8,123.3,15.3z M127.1,15.3c0-0.8-0.4-1.7-1.4-1.7c-1,0-1.4,0.9-1.4,1.7c0,0.8,0.4,1.7,1.4,1.7
			C126.6,17,127.1,16.2,127.1,15.3z"/>
		<path fill="#FFFFFF" d="M128.5,12.9h0.8v-0.4c0-1.2,0.6-1.4,1.3-1.4c0.3,0,0.6,0,0.7,0.1V12c-0.1,0-0.3-0.1-0.5-0.1
			c-0.3,0-0.5,0.1-0.5,0.5v0.5h0.9v0.8h-0.9v4h-1.1v-4h-0.8V12.9z"/>
		<path fill="#FFFFFF" d="M139.2,13.2c-0.2-0.8-0.7-1.3-1.7-1.3c-1.4,0-2,1.3-2,2.5c0,1.3,0.6,2.5,2,2.5c1,0,1.6-0.8,1.7-1.7h1.1
			c-0.1,1.6-1.2,2.7-2.8,2.7c-2,0-3.2-1.6-3.2-3.5c0-1.9,1.2-3.5,3.2-3.5c1.5,0,2.7,0.8,2.8,2.3H139.2z"/>
		<path fill="#FFFFFF" d="M145.3,16.7c0,0.3,0.1,0.4,0.3,0.4c0.1,0,0.1,0,0.3,0v0.7c-0.2,0.1-0.5,0.1-0.7,0.1
			c-0.4,0-0.7-0.1-0.8-0.6c-0.4,0.4-1.1,0.6-1.7,0.6c-0.9,0-1.6-0.5-1.6-1.4c0-1.2,1-1.4,1.9-1.5c0.8-0.1,1.4-0.1,1.4-0.7
			c0-0.5-0.6-0.7-1-0.7c-0.6,0-1,0.2-1.1,0.8h-1.1c0.1-1.2,1.1-1.6,2.2-1.6c0.9,0,1.9,0.4,1.9,1.4V16.7z M144.2,15.3
			c-0.3,0.2-0.8,0.2-1.3,0.3c-0.5,0.1-0.9,0.2-0.9,0.8c0,0.5,0.6,0.6,1,0.6c0.5,0,1.2-0.2,1.2-0.9V15.3z"/>
		<path fill="#FFFFFF" d="M146.5,12.9h1v0.7l0,0c0.3-0.5,0.9-0.9,1.5-0.9c1,0,1.7,0.6,1.7,1.6v3.3h-1.1v-3c0-0.8-0.3-1.1-0.9-1.1
			c-0.7,0-1.2,0.6-1.2,1.3v2.8h-1.1V12.9z"/>
		<path fill="#FFFFFF" d="M155.8,16.7c0,0.3,0.1,0.4,0.3,0.4c0.1,0,0.1,0,0.3,0v0.7c-0.2,0.1-0.5,0.1-0.7,0.1
			c-0.4,0-0.7-0.1-0.8-0.6c-0.4,0.4-1.1,0.6-1.7,0.6c-0.9,0-1.6-0.5-1.6-1.4c0-1.2,1-1.4,1.9-1.5c0.8-0.1,1.4-0.1,1.4-0.7
			c0-0.5-0.6-0.7-1-0.7c-0.6,0-1,0.2-1.1,0.8h-1.1c0.1-1.2,1.1-1.6,2.2-1.6c0.9,0,1.9,0.4,1.9,1.4V16.7z M154.8,15.3
			c-0.3,0.2-0.8,0.2-1.3,0.3c-0.5,0.1-0.9,0.2-0.9,0.8c0,0.5,0.6,0.6,1,0.6c0.5,0,1.2-0.2,1.2-0.9V15.3z"/>
		<path fill="#FFFFFF" d="M161.5,17.8h-1v-0.7h0c-0.3,0.6-0.9,0.8-1.5,0.8c-1.5,0-2.3-1.1-2.3-2.6c0-1.7,1-2.5,2.1-2.5
			c0.6,0,1.3,0.2,1.6,0.8h0v-2.5h1.1V17.8z M159.2,17c1,0,1.4-0.9,1.4-1.7c0-1.1-0.5-1.7-1.3-1.7c-1,0-1.4,0.9-1.4,1.8
			C157.8,16.2,158.2,17,159.2,17z"/>
		<path fill="#FFFFFF" d="M166.7,16.7c0,0.3,0.1,0.4,0.3,0.4c0.1,0,0.1,0,0.3,0v0.7c-0.2,0.1-0.5,0.1-0.7,0.1
			c-0.4,0-0.7-0.1-0.8-0.6c-0.4,0.4-1.1,0.6-1.7,0.6c-0.9,0-1.6-0.5-1.6-1.4c0-1.2,1-1.4,1.9-1.5c0.8-0.1,1.4-0.1,1.4-0.7
			c0-0.5-0.6-0.7-1-0.7c-0.6,0-1,0.2-1.1,0.8h-1.1c0.1-1.2,1.1-1.6,2.2-1.6c0.9,0,1.9,0.4,1.9,1.4V16.7z M165.7,15.3
			c-0.3,0.2-0.8,0.2-1.3,0.3c-0.5,0.1-0.9,0.2-0.9,0.8c0,0.5,0.6,0.6,1,0.6c0.5,0,1.2-0.2,1.2-0.9V15.3z"/>
	</g>
	<g>
		<path fill="#FFFFFF" d="M54.3,6.8h-0.7L53.3,6c-0.6,0.7-1.2,0.9-2,0.9c-2,0-3.2-1.6-3.2-3.5c0-1.9,1.2-3.5,3.2-3.5
			c1.5,0,2.7,0.8,2.9,2.3H53C52.9,1.4,52.2,1,51.3,1c-1.4,0-2,1.3-2,2.5c0,1.3,0.6,2.5,2,2.5c1.2,0,1.8-0.7,1.9-1.8h-1.8V3.3h2.8
			V6.8z"/>
		<path fill="#FFFFFF" d="M55.1,4.4c0-1.5,0.9-2.5,2.4-2.5c1.5,0,2.4,1.1,2.4,2.5c0,1.5-0.9,2.5-2.4,2.5C56,6.9,55.1,5.9,55.1,4.4z
			 M59,4.4c0-0.8-0.4-1.7-1.4-1.7c-1,0-1.4,0.9-1.4,1.7c0,0.8,0.4,1.7,1.4,1.7C58.5,6.1,59,5.2,59,4.4z"/>
		<path fill="#FFFFFF" d="M65.1,6.8h-1V6.1h0c-0.3,0.5-0.8,0.8-1.4,0.8c-1.3,0-1.8-0.6-1.8-1.9V2H62v3c0,0.8,0.3,1.2,0.9,1.2
			c0.9,0,1.2-0.6,1.2-1.3V2h1.1V6.8z"/>
		<path fill="#FFFFFF" d="M65.8,2h1.2l1.2,3.7h0L69.3,2h1.1l-1.7,4.8h-1.2L65.8,2z"/>
		<path fill="#FFFFFF" d="M71.9,4.7c0,0.8,0.4,1.4,1.3,1.4c0.6,0,1-0.3,1.2-0.8h1c-0.2,1.1-1.1,1.6-2.2,1.6c-1.5,0-2.4-1.1-2.4-2.5
			c0-1.4,0.9-2.5,2.3-2.5c1.5,0,2.5,1.4,2.3,2.8H71.9z M74.4,4c0-0.7-0.5-1.3-1.2-1.3c-0.7,0-1.2,0.6-1.3,1.3H74.4z"/>
		<path fill="#FFFFFF" d="M76.3,2h1v0.9h0c0.1-0.5,0.8-1.1,1.4-1.1c0.2,0,0.3,0,0.4,0v1c-0.1,0-0.3,0-0.5,0c-0.7,0-1.3,0.6-1.3,1.6
			v2.3h-1.1V2z"/>
		<path fill="#FFFFFF" d="M79.7,2h1v0.7l0,0c0.3-0.5,0.9-0.9,1.5-0.9c1,0,1.7,0.6,1.7,1.6v3.3h-1.1v-3c0-0.8-0.3-1.1-0.9-1.1
			c-0.7,0-1.2,0.6-1.2,1.3v2.8h-1.1V2z"/>
		<path fill="#FFFFFF" d="M85.9,4.7c0,0.8,0.4,1.4,1.3,1.4c0.6,0,1-0.3,1.2-0.8h1c-0.2,1.1-1.1,1.6-2.2,1.6c-1.5,0-2.4-1.1-2.4-2.5
			c0-1.4,0.9-2.5,2.3-2.5c1.5,0,2.5,1.4,2.3,2.8H85.9z M88.4,4c0-0.7-0.5-1.3-1.2-1.3c-0.7,0-1.2,0.6-1.3,1.3H88.4z"/>
		<path fill="#FFFFFF" d="M90.3,2h1v0.7h0c0.3-0.5,0.7-0.8,1.5-0.8c0.6,0,1.1,0.3,1.4,0.8c0.4-0.5,0.8-0.8,1.5-0.8
			c1,0,1.6,0.4,1.6,1.6v3.3h-1.1V4c0-0.8,0-1.3-0.9-1.3c-0.7,0-1,0.5-1,1.3v2.8h-1.1V3.7c0-0.7-0.2-1-0.8-1c-0.5,0-1.1,0.4-1.1,1.2
			v2.9h-1.1V2z"/>
		<path fill="#FFFFFF" d="M99.2,4.7c0,0.8,0.4,1.4,1.3,1.4c0.6,0,1-0.3,1.2-0.8h1c-0.2,1.1-1.1,1.6-2.2,1.6c-1.5,0-2.4-1.1-2.4-2.5
			c0-1.4,0.9-2.5,2.3-2.5c1.5,0,2.5,1.4,2.3,2.8H99.2z M101.7,4c0-0.7-0.5-1.3-1.2-1.3c-0.7,0-1.2,0.6-1.3,1.3H101.7z"/>
		<path fill="#FFFFFF" d="M103.6,2h1v0.7l0,0c0.3-0.5,0.9-0.9,1.5-0.9c1,0,1.7,0.6,1.7,1.6v3.3h-1.1v-3c0-0.8-0.3-1.1-0.9-1.1
			c-0.7,0-1.2,0.6-1.2,1.3v2.8h-1.1V2z"/>
		<path fill="#FFFFFF" d="M108.4,2h0.8V0.6h1.1V2h1v0.8h-1v2.6c0,0.4,0,0.7,0.5,0.7c0.1,0,0.3,0,0.4,0v0.8c-0.2,0-0.5,0.1-0.7,0.1
			c-1.1,0-1.3-0.4-1.3-1.2V2.8h-0.8V2z"/>
		<path fill="#FFFFFF" d="M52.8,17.8h-1v-0.7h0c-0.3,0.6-0.9,0.8-1.5,0.8c-1.5,0-2.3-1.1-2.3-2.6c0-1.7,1-2.5,2.1-2.5
			c0.6,0,1.3,0.2,1.6,0.8h0v-2.5h1.1V17.8z M50.5,17c1,0,1.4-0.9,1.4-1.7c0-1.1-0.5-1.7-1.3-1.7c-1,0-1.4,0.9-1.4,1.8
			C49.1,16.2,49.5,17,50.5,17z"/>
		<path fill="#FFFFFF" d="M58.2,17.8h-1v-0.7h0c-0.3,0.5-0.8,0.8-1.4,0.8c-1.3,0-1.8-0.6-1.8-1.9v-3.1h1.1v3c0,0.8,0.3,1.2,0.9,1.2
			c0.9,0,1.2-0.6,1.2-1.3v-2.8h1.1V17.8z"/>
		<path fill="#FFFFFF" d="M66.6,13.2c-0.2-0.8-0.7-1.3-1.7-1.3c-1.4,0-2,1.3-2,2.5c0,1.3,0.6,2.5,2,2.5c1,0,1.6-0.8,1.7-1.7h1.1
			c-0.1,1.6-1.2,2.7-2.8,2.7c-2,0-3.2-1.6-3.2-3.5c0-1.9,1.2-3.5,3.2-3.5c1.5,0,2.7,0.8,2.8,2.3H66.6z"/>
		<path fill="#FFFFFF" d="M72.7,16.7c0,0.3,0.1,0.4,0.3,0.4c0.1,0,0.1,0,0.3,0v0.7c-0.2,0.1-0.5,0.1-0.7,0.1c-0.4,0-0.7-0.1-0.8-0.6
			c-0.4,0.4-1.1,0.6-1.7,0.6c-0.9,0-1.7-0.5-1.7-1.4c0-1.2,1-1.4,1.9-1.5c0.8-0.1,1.4-0.1,1.4-0.7c0-0.5-0.6-0.7-1-0.7
			c-0.6,0-1,0.2-1.1,0.8h-1.1c0.1-1.2,1.1-1.6,2.2-1.6c0.9,0,1.9,0.4,1.9,1.4V16.7z M71.6,15.3c-0.3,0.2-0.8,0.2-1.3,0.3
			c-0.5,0.1-0.9,0.2-0.9,0.8c0,0.5,0.6,0.6,1,0.6c0.5,0,1.2-0.2,1.2-0.9V15.3z"/>
		<path fill="#FFFFFF" d="M73.9,12.9h1v0.7l0,0c0.3-0.5,0.9-0.9,1.5-0.9c1,0,1.7,0.6,1.7,1.6v3.3H77v-3c0-0.8-0.3-1.1-0.9-1.1
			c-0.7,0-1.2,0.6-1.2,1.3v2.8h-1.1V12.9z"/>
		<path fill="#FFFFFF" d="M83.2,16.7c0,0.3,0.1,0.4,0.3,0.4c0.1,0,0.1,0,0.3,0v0.7c-0.2,0.1-0.5,0.1-0.7,0.1c-0.4,0-0.7-0.1-0.8-0.6
			c-0.4,0.4-1.1,0.6-1.7,0.6c-0.9,0-1.7-0.5-1.7-1.4c0-1.2,1-1.4,1.9-1.5c0.8-0.1,1.4-0.1,1.4-0.7c0-0.5-0.6-0.7-1-0.7
			c-0.6,0-1,0.2-1.1,0.8h-1.1c0.1-1.2,1.1-1.6,2.2-1.6c0.9,0,1.9,0.4,1.9,1.4V16.7z M82.2,15.3c-0.3,0.2-0.8,0.2-1.3,0.3
			c-0.5,0.1-0.9,0.2-0.9,0.8c0,0.5,0.6,0.6,1,0.6c0.5,0,1.2-0.2,1.2-0.9V15.3z"/>
		<path fill="#FFFFFF" d="M88.9,17.8h-1v-0.7h0c-0.3,0.6-0.9,0.8-1.5,0.8c-1.5,0-2.3-1.1-2.3-2.6c0-1.7,1-2.5,2.1-2.5
			c0.6,0,1.3,0.2,1.6,0.8h0v-2.5h1.1V17.8z M86.5,17c1,0,1.4-0.9,1.4-1.7c0-1.1-0.5-1.7-1.3-1.7c-1,0-1.4,0.9-1.4,1.8
			C85.2,16.2,85.6,17,86.5,17z"/>
		<path fill="#FFFFFF" d="M94.1,16.7c0,0.3,0.1,0.4,0.3,0.4c0.1,0,0.1,0,0.3,0v0.7c-0.2,0.1-0.5,0.1-0.7,0.1c-0.4,0-0.7-0.1-0.8-0.6
			c-0.4,0.4-1.1,0.6-1.7,0.6c-0.9,0-1.7-0.5-1.7-1.4c0-1.2,1-1.4,1.9-1.5c0.8-0.1,1.4-0.1,1.4-0.7c0-0.5-0.6-0.7-1-0.7
			c-0.6,0-1,0.2-1.1,0.8H90c0.1-1.2,1.1-1.6,2.2-1.6c0.9,0,1.9,0.4,1.9,1.4V16.7z M93.1,15.3c-0.3,0.2-0.8,0.2-1.3,0.3
			c-0.5,0.1-0.9,0.2-0.9,0.8c0,0.5,0.6,0.6,1,0.6c0.5,0,1.2-0.2,1.2-0.9V15.3z"/>
	</g>
	<g>
		<rect x="0" y="0.4" fill="#ED1C24" width="8.7" height="17.3"/>
		<path fill="#ED1C24" d="M4.3,9"/>
	</g>
	<g>
		<rect x="26" y="0.4" fill="#ED1C24" width="8.7" height="17.3"/>
		<path fill="#ED1C24" d="M30.3,9"/>
	</g>
	<path fill="#ED1C24" d="M16.2,4c-0.1,0.2-0.4,0.3-0.6,0.1c-0.4-0.2-0.7-0.4-1.1-0.6c0.3,1.3,0.5,2.5,0.8,3.8
		c-0.1,0.2-0.2,0.4-0.4,0.3c-0.7-0.5-1.2-1.2-1.8-1.8c-0.3,0.4-0.3,0.9-0.7,1.1c-0.6-0.1-1.2-0.2-1.7-0.3c0.2,0.6,0.4,1.2,0.6,1.8
		c0.1,0.4-0.3,0.7-0.7,0.8c0.4,0.3,0.8,0.7,1.2,1c0.7,0.6,1.4,1.1,2,1.8c0.1,0.5-0.3,1-0.4,1.5c1-0.2,1.9-0.4,2.9-0.6
		c0.2-0.1,0.5,0,0.5,0.2c0,1.1,0,2.2,0,3.3c0,0,0.5,0,0.7,0c0-1.1,0-3.3,0-3.3c0-0.3,0.3-0.3,0.5-0.2c1,0.3,1.9,0.4,2.9,0.6
		c0-0.5-0.4-0.9-0.4-1.5c0.6-0.6,1.3-1.1,2-1.8c0.4-0.4,0.8-0.7,1.2-1c-0.4-0.1-0.8-0.4-0.7-0.8c0.2-0.6,0.4-1.2,0.6-1.8
		c-0.6,0.1-1.2,0.2-1.7,0.3c-0.4-0.2-0.4-0.8-0.7-1.1c-0.6,0.6-1,1.3-1.8,1.8c-0.2,0.1-0.3-0.1-0.4-0.3c0.3-1.3,0.5-2.5,0.8-3.8
		c-0.3,0.3-0.7,0.4-1.1,0.6c-0.2,0.1-0.5,0.1-0.6-0.1c0,0-1.1-2.2-1.1-2.2"/>
</g>
</svg>
